<svg xmlns="http://www.w3.org/2000/svg" viewBox="0 0 300 300" width="300" height="300">
  <defs>
    <linearGradient id="grad1" x1="211.42822" y1="155.1123" x2="88.27764" y2="159.45996" gradientUnits="userSpaceOnUse">
      <stop offset="0" stop-color="#dc96ff"/>
      <stop offset="1" stop-color="#a4a4ff"/>
    </linearGradient>
    <linearGradient id="grad2" x1="89.76079" y1="105.36138" x2="194.34668" y2="93.25327" gradientUnits="userSpaceOnUse">
      <stop offset="0" stop-color="#a448fe"/>
      <stop offset="1" stop-color="#dda4ff"/>
    </linearGradient>
  </defs>
  <path d="M89.18335,187.48828c-0.34131,-5.53418 0.19937,-11.62354 -0.02051,-17.20752c-0.11279,-2.8667 0.03252,-5.86377 -0.02549,-8.75244c-0.07529,-3.75 -0.12905,-7.64355 0.75322,-11.30566c1.27266,-5.14307 3.88374,-9.85825 7.56826,-13.66611c4.32085,-4.41753 9.87788,-7.42339 15.93984,-8.62163c3.08057,-0.62651 8.7457,-0.46216 12.05464,-0.4604l16.72251,0.00469l64.70698,-0.03076c3.37207,-0.01479 5.31445,0.45527 3.21094,4.23823c-3.01904,5.42871 -6.31494,10.71211 -9.39258,16.10581l-8.54736,14.85059c-2.23096,3.86865 -5.03906,9.34424 -8.02441,12.62256c-2.2251,2.44189 -6.39551,2.28516 -9.50244,2.28369l-8.02881,-0.02197c-3.55664,-0.01172 -9.9668,0.18896 -13.30078,-0.03516l-0.13916,-0.01025c-0.50537,-0.00439 -1.06055,-0.07031 -1.47949,0.16846c-1.99072,2.95166 -4.7915,8.21338 -6.68042,11.49316c-4.36978,7.49121 -8.69897,15.00439 -12.98774,22.54102c-1.51538,2.63086 -3.15615,5.40527 -4.6314,8.04346c-4.41943,7.9043 -9.80508,8.76563 -18.1541,8.79492l-8.54341,0.01172c-2.9814,0.00146 -5.9981,0.01025 -8.9748,-0.07031c-3.47212,-0.09375 -2.59277,-5.24121 -2.59482,-7.7666l-0.00776,-11.40088l-0.01201,-13.87354c-0.00439,-1.4751 -0.07471,-6.55957 0.09111,-7.93506z" fill="url(#grad1)"/>
  <path d="M89.18335,187.48828c0.06299,1.03711 0.10371,2.07568 0.12202,3.11572l0.05361,-0.29297l0.21064,-0.08496c1.2668,-3.91553 3.55107,-6.67676 6.8332,-9.10986c6.29795,-4.66846 13.27998,-3.84375 20.75171,-3.83936l18.8272,0.00732l10.6418,0.00439c1.63477,0.00293 5.02148,-0.07031 6.53467,0.19336c-0.50537,-0.00439 -1.06055,-0.07031 -1.47949,0.16846c-1.99072,2.95166 -4.7915,8.21338 -6.68042,11.49316c-4.36978,7.49121 -8.69897,15.00439 -12.98774,22.54102c-1.51538,2.63086 -3.15615,5.40527 -4.6314,8.04346c-4.41943,7.9043 -9.80508,8.76563 -18.1541,8.79492l-8.54341,0.01172c-2.9814,0.00146 -5.9981,0.01025 -8.9748,-0.07031c-3.47212,-0.09375 -2.59277,-5.24121 -2.59482,-7.7666l-0.00776,-11.40088l-0.01201,-13.87354c-0.00439,-1.4751 -0.07471,-6.55957 0.09111,-7.93506z" fill="#655cfb"/>
  <path d="M190.70947,123.68628c-2.06836,1.68838 -6.89209,1.0771 -9.49365,1.14946c-2.39355,0.06665 -4.90283,0.01084 -7.30371,0.0186l-35.48496,-0.00205l-15.28696,0.01685c-4.24146,0.00366 -9.12686,0.21387 -13.22622,-0.65347c-5.02646,-1.04033 -9.64424,-3.51313 -13.29624,-7.12017c-5.00903,-4.90107 -7.53589,-11.01035 -7.56826,-17.99648c-0.04951,-7.07915 2.78599,-13.8731 7.85332,-18.81665c3.93589,-3.91289 9.11938,-6.73872 14.55454,-7.90269c4.03784,-0.8647 9.65581,-0.63032 13.92554,-0.62168l16.01689,0.0312l54.39419,0.02886l14.68213,-0.02944c2.39648,-0.00264 4.77979,-0.0665 7.20703,0.09727c1.0752,0.07251 2.16357,1.01851 2.12549,2.24487c-0.02197,0.65654 -0.8833,1.89053 -1.13379,2.50312c-8.85645,15.08789 -17.44043,30.33999 -26.36133,45.38774c-0.3501,0.59004 -0.98437,1.3604 -1.604,1.66465z" fill="url(#grad2)"/>
  <path d="M195.79395,71.81807l14.68213,-0.02944c2.39648,-0.00264 4.77979,-0.0665 7.20703,0.09727c1.0752,0.07251 2.16357,1.01851 2.12549,2.24487c-0.02197,0.65654 -0.8833,1.89053 -1.13379,2.50312c-8.85645,15.08789 -17.44043,30.33999 -26.36133,45.38774c-0.3501,0.59004 -0.98437,1.3604 -1.604,1.66465c-0.33105,0.01025 -0.64893,0.07793 -0.97852,0.13198c0.4585,-0.49058 0.68555,-4.26973 0.5332,-5.03115c-0.46289,-2.29541 -1.32129,-4.45605 -1.39893,-6.85107c-0.06885,-2.15317 0.30469,-4.29141 0.26367,-6.44575c-0.01611,-0.8209 -0.65918,-2.60713 -0.47314,-3.26865c0.78955,-2.8207 -0.13037,-6.14956 0.04248,-8.92808c0.12158,-1.95879 0.69727,-4.4874 1.01074,-6.4541c0.03223,-0.57847 0.5625,-2.07187 0.51709,-2.53286c-0.26953,-2.73589 0.58154,-5.06016 0.95508,-7.70684c0.13037,-0.92944 -0.47754,-3.25737 0.20654,-3.90879c0.84814,-0.80742 3.03662,-0.41367 4.40625,-0.8729z" fill="#e0a9fe"/>
</svg>